<?xml version="1.0" encoding="UTF-8" standalone="no"?>
<svg
   xmlns:dc="http://purl.org/dc/elements/1.1/"
   xmlns:cc="http://creativecommons.org/ns#"
   xmlns:rdf="http://www.w3.org/1999/02/22-rdf-syntax-ns#"
   xmlns:svg="http://www.w3.org/2000/svg"
   xmlns="http://www.w3.org/2000/svg"
   xmlns:sodipodi="http://sodipodi.sourceforge.net/DTD/sodipodi-0.dtd"
   xmlns:inkscape="http://www.inkscape.org/namespaces/inkscape"
   width="370.99999999999994"
   height="370.99999999999994"
   version="1.1"
   id="svg13"
   sodipodi:docname="confident.svg"
   inkscape:version="0.92.3 (2405546, 2018-03-11)">
  <metadata
     id="metadata19">
    <rdf:RDF>
      <cc:Work
         rdf:about="">
        <dc:format>image/svg+xml</dc:format>
        <dc:type
           rdf:resource="http://purl.org/dc/dcmitype/StillImage" />
      </cc:Work>
    </rdf:RDF>
  </metadata>
  <defs
     id="defs17" />
  <sodipodi:namedview
     pagecolor="#ffffff"
     bordercolor="#666666"
     borderopacity="1"
     objecttolerance="10"
     gridtolerance="10"
     guidetolerance="10"
     inkscape:pageopacity="0"
     inkscape:pageshadow="2"
     inkscape:window-width="1533"
     inkscape:window-height="845"
     id="namedview15"
     showgrid="false"
     inkscape:zoom="0.6361186"
     inkscape:cx="-617.80933"
     inkscape:cy="185.5"
     inkscape:window-x="67"
     inkscape:window-y="27"
     inkscape:window-maximized="1"
     inkscape:current-layer="svg13" />
  <g
     id="g5">
    <title
       id="title2">background</title>
    <rect
       fill="none"
       id="canvas_background"
       height="373"
       width="373"
       y="-1"
       x="-1" />
  </g>
  <g
     id="g11"
     style="fill:#5758d5;fill-opacity:1">
    <title
       id="title7">Layer 1</title>
    <path
       id="svg_10"
       d="m185.498993,0c-20.479004,0 -37.079987,16.600006 -37.079987,37.080002c0,20.479004 16.60199,37.078003 37.079987,37.078003c20.480011,0 37.082001,-16.600006 37.082001,-37.078003c0,-20.479996 -16.60202,-37.080002 -37.082001,-37.080002zm15.931,40.942001c-1.26001,7.867004 -7.964996,13.578003 -15.938995,13.578003c-7.899994,0 -14.59201,-5.645004 -15.911987,-13.419998c-0.167999,-0.977005 0.10498,-1.979004 0.741974,-2.736008s1.574005,-1.199005 2.56601,-1.203003l25.19101,-0.128998c1.020996,0.001999 1.93399,0.423996 2.579987,1.178009c0.644989,0.752991 0.925995,1.750992 0.772003,2.731995z"
       style="fill:#5758d5;fill-opacity:1" />
    <path
       id="svg_11"
       d="m235.641983,231.064468l-1.131012,-8.571991l-0.10498,0.079987l-6.680023,-45.402008l0.113007,-0.11499l-1.175995,-8.553009l-4.049011,-29.726929c-0.15799,-1.145996 1.215027,-1.820007 2.025024,-1.01001l15.548981,15.546936c3.28302,3.285004 3.28302,8.594025 0,11.878998l-1.329987,1.330017l6.673981,45.389008l27.797012,-25.365021c15.028992,-15.050995 15.028992,-39.442963 0,-54.4729l0.046997,-0.067993l-20.904007,-20.786926c-14.938995,-14.919937 -35.167999,-23.194916 -56.27298,-23.194916l-21.397003,0c-21.104996,0 -41.354996,8.217972 -56.270996,23.137909l-20.903,20.861938l0.042999,0c-15.028992,14.999939 -15.028992,39.444916 0,54.497894l27.820007,25.38501l6.669998,-45.369995l-1.346008,-1.347015c-3.284988,-3.284973 -3.284988,-8.592987 0,-11.877991l15.546997,-15.546936c0.809006,-0.80899 2.182007,-0.135986 2.02301,1.011017l-5.225006,38.277924l0.111008,0.110992l-6.633011,45.257996l-0.126999,-0.118988l-19.175995,143.511978c-0.382996,2.879028 1.867004,5.208008 4.770004,5.208008l29.362991,0c2.408005,0 4.432007,-1.519958 4.770004,-3.901978l15.908005,-115.318008c0.269989,-1.957001 0.921997,-3.739014 1.866989,-5.358002c5.018005,-8.527008 17.955017,-8.494995 22.949005,0.031982c0.945007,1.619019 1.600006,3.479004 1.890991,5.440002l15.906006,115.194016c0.339996,2.38501 2.36499,3.911987 4.770996,3.911987l29.361023,0c2.901978,0 5.151978,-2.328003 4.769989,-5.20697l-18.019012,-134.751022zm-37.355988,-67.640991l-12.256012,8.604004l-12.770996,-8.604004c-0.376999,-0.261993 -0.821991,-0.730011 -0.716995,-1.179993l10.304993,-44.065872c0.076004,-0.319984 -0.060989,-0.657997 -0.255997,-0.923988l-7.155991,-9.555962c-0.547012,-0.741997 -0.049011,-1.674995 0.875,-1.674995l18.395004,0c0.924011,0 1.453003,0.932999 0.906006,1.674995l-7.121002,9.61396c-0.199005,0.265991 -0.268005,0.576004 -0.188995,0.895988l10.43399,44.050858c0.108002,0.450012 -0.072021,0.904022 -0.449005,1.165009z"
       style="fill:#5758d5;fill-opacity:1" />
  </g>
</svg>
