<?xml version="1.0" encoding="UTF-8" standalone="no"?>
<!-- Generator: Adobe Illustrator 19.0.0, SVG Export Plug-In . SVG Version: 6.00 Build 0)  -->

<svg
   xmlns:dc="http://purl.org/dc/elements/1.1/"
   xmlns:cc="http://creativecommons.org/ns#"
   xmlns:rdf="http://www.w3.org/1999/02/22-rdf-syntax-ns#"
   xmlns:svg="http://www.w3.org/2000/svg"
   xmlns="http://www.w3.org/2000/svg"
   xmlns:sodipodi="http://sodipodi.sourceforge.net/DTD/sodipodi-0.dtd"
   xmlns:inkscape="http://www.inkscape.org/namespaces/inkscape"
   version="1.1"
   id="Capa_1"
   x="0px"
   y="0px"
   viewBox="0 0 512 512"
   style="enable-background:new 0 0 512 512;"
   xml:space="preserve"
   sodipodi:docname="discussion.svg"
   inkscape:version="0.92.3 (2405546, 2018-03-11)"><metadata
   id="metadata98"><rdf:RDF><cc:Work
       rdf:about=""><dc:format>image/svg+xml</dc:format><dc:type
         rdf:resource="http://purl.org/dc/dcmitype/StillImage" /></cc:Work></rdf:RDF></metadata><defs
   id="defs96" /><sodipodi:namedview
   pagecolor="#ffffff"
   bordercolor="#666666"
   borderopacity="1"
   objecttolerance="10"
   gridtolerance="10"
   guidetolerance="10"
   inkscape:pageopacity="0"
   inkscape:pageshadow="2"
   inkscape:window-width="1533"
   inkscape:window-height="845"
   id="namedview94"
   showgrid="false"
   inkscape:zoom="0.4609375"
   inkscape:cx="256"
   inkscape:cy="256"
   inkscape:window-x="67"
   inkscape:window-y="27"
   inkscape:window-maximized="1"
   inkscape:current-layer="Capa_1" />
<g
   id="g25"
   style="fill:#5758d5;fill-opacity:1">
	<g
   id="g23"
   style="fill:#5758d5;fill-opacity:1">
		<path
   d="M256,272c-33.091,0-61,26.909-61,60s27.909,60,61,60s61-26.909,61-60S289.091,272,256,272z"
   id="path21"
   style="fill:#5758d5;fill-opacity:1" />
	</g>
</g>
<g
   id="g31"
   style="fill:#5758d5;fill-opacity:1">
	<g
   id="g29"
   style="fill:#5758d5;fill-opacity:1">
		<path
   d="M437,332c-24.814,0-45,20.186-45,45c0,24.814,20.186,45,45,45c24.814,0,45-20.186,45-45C482,352.186,461.814,332,437,332z    "
   id="path27"
   style="fill:#5758d5;fill-opacity:1" />
	</g>
</g>
<g
   id="g37"
   style="fill:#5758d5;fill-opacity:1">
	<g
   id="g35"
   style="fill:#5758d5;fill-opacity:1">
		<path
   d="M75,332c-24.814,0-45,20.186-45,45c0,24.814,20.186,45,45,45s45-20.186,45-45C120,352.186,99.814,332,75,332z"
   id="path33"
   style="fill:#5758d5;fill-opacity:1" />
	</g>
</g>
<g
   id="g43"
   style="fill:#5758d5;fill-opacity:1">
	<g
   id="g41"
   style="fill:#5758d5;fill-opacity:1">
		<path
   d="M407,0H105C63.647,0,30,33.647,30,75c0,36.226,25.811,66.519,60,73.491V197c0,6.064,3.647,11.543,9.258,13.857    c5.596,2.329,12.07,1.055,16.348-3.252L171.211,150h35.757l36.552,55.32c5.566,8.35,19.395,8.35,24.961,0L304.032,150h36.757    l55.605,57.605c4.33,4.33,10.816,5.561,16.348,3.252c5.61-2.314,9.258-7.793,9.258-13.857v-48.509    c34.189-6.973,60-37.266,60-73.491C482,33.647,448.353,0,407,0z M377,90H135c-8.291,0-15-6.709-15-15s6.709-15,15-15h242    c8.291,0,15,6.709,15,15S385.291,90,377,90z"
   id="path39"
   style="fill:#5758d5;fill-opacity:1" />
	</g>
</g>
<g
   id="g49"
   style="fill:#5758d5;fill-opacity:1">
	<g
   id="g47"
   style="fill:#5758d5;fill-opacity:1">
		<path
   d="M481.112,437.35C468.699,446.452,453.536,452,437,452c-16.569,0-31.76-5.576-44.185-14.711    c-7.214,5.383-13.797,11.547-18.704,19.124C375.916,464.676,377,473.202,377,482v30h124.404c5.852,0,10.596-4.744,10.596-10.596    C512,475.987,500.062,452.167,481.112,437.35z"
   id="path45"
   style="fill:#5758d5;fill-opacity:1" />
	</g>
</g>
<g
   id="g55"
   style="fill:#5758d5;fill-opacity:1">
	<g
   id="g53"
   style="fill:#5758d5;fill-opacity:1">
		<path
   d="M343.7,457.099c-6.11-20.799-20.578-38.37-38.271-50.024C291.224,416.459,274.263,422,256,422    c-18.239,0-36.178-5.532-50.373-14.894C180.709,424.162,165,453.926,165,485.6V497c0,8.401,6.599,15,15,15h152    c8.401,0,15-6.599,15-15v-15C347,473.301,345.801,464.9,343.7,457.099z"
   id="path51"
   style="fill:#5758d5;fill-opacity:1" />
	</g>
</g>
<g
   id="g61"
   style="fill:#5758d5;fill-opacity:1">
	<g
   id="g59"
   style="fill:#5758d5;fill-opacity:1">
		<path
   d="M119.185,437.289C106.758,446.424,91.569,452,75,452c-16.536,0-31.699-5.548-44.112-14.65    C11.938,452.167,0,475.987,0,501.404C0,507.256,4.744,512,10.596,512H135v-30c0-8.798,1.084-17.324,2.889-25.587    C132.982,448.836,126.397,442.673,119.185,437.289z"
   id="path57"
   style="fill:#5758d5;fill-opacity:1" />
	</g>
</g>
<g
   id="g63"
   style="fill:#5758d5;fill-opacity:1">
</g>
<g
   id="g65"
   style="fill:#5758d5;fill-opacity:1">
</g>
<g
   id="g67"
   style="fill:#5758d5;fill-opacity:1">
</g>
<g
   id="g69"
   style="fill:#5758d5;fill-opacity:1">
</g>
<g
   id="g71"
   style="fill:#5758d5;fill-opacity:1">
</g>
<g
   id="g73"
   style="fill:#5758d5;fill-opacity:1">
</g>
<g
   id="g75"
   style="fill:#5758d5;fill-opacity:1">
</g>
<g
   id="g77"
   style="fill:#5758d5;fill-opacity:1">
</g>
<g
   id="g79"
   style="fill:#5758d5;fill-opacity:1">
</g>
<g
   id="g81"
   style="fill:#5758d5;fill-opacity:1">
</g>
<g
   id="g83"
   style="fill:#5758d5;fill-opacity:1">
</g>
<g
   id="g85"
   style="fill:#5758d5;fill-opacity:1">
</g>
<g
   id="g87"
   style="fill:#5758d5;fill-opacity:1">
</g>
<g
   id="g89"
   style="fill:#5758d5;fill-opacity:1">
</g>
<g
   id="g91"
   style="fill:#5758d5;fill-opacity:1">
</g>
</svg>