<?xml version="1.0" encoding="utf-8"?>
<!-- Generator: Adobe Illustrator 22.1.0, SVG Export Plug-In . SVG Version: 6.00 Build 0)  -->
<svg version="1.1" id="Camada_1" xmlns="http://www.w3.org/2000/svg" xmlns:xlink="http://www.w3.org/1999/xlink" x="0px" y="0px"
	 viewBox="0 0 192 171" style="enable-background:new 0 0 192 171;" xml:space="preserve">
<style type="text/css">
	.st0{fill:#6655D6;}
	.st1{fill:#5543D2;}
	.st2{fill:#3B2E93;}
</style>
<g>
	<path class="st0" d="M32.2,102.8c2.1,3.1,1.9,7-0.5,9.8c-1.7,2-3.7,4.6-5.8,7.5l3.9-9.4c0.7-1.7,0.8-3.6,0.2-5.4L26.4,94
		C28.6,97.5,30.6,100.5,32.2,102.8z"/>
	<path class="st1" d="M32.4,113.3c2.6-3.2,2.9-7.6,0.6-11C21.7,85.5-13.8,29.3,5.8,9.6C24.6-9.3,53,4.3,64.4,11
		c2.2,1.3,3.7,3.3,4.4,5.8l24.7,91.6c0.5,1.8,0.8,3.6,1.1,5.4L95,117c0,0.2,0,0.5,0,0.7c0,1.6-0.1,4.2-0.2,6.6c0,0,0,0,0,0
		L66.6,22.6c-0.8-2.9-2.8-5.4-5.4-6.8c-9.2-5-32.3-14.6-49.4,2.5c-17.4,17.5,10.6,64.2,23.4,83.5c2.5,3.7,2.3,8.6-0.5,12
		c-9.6,11.9-23.9,33.5-12.2,45.3c5.3,5.4,13.1,7.2,21,7.2c11,0,22.4-3.4,28.6-5.7c0.4-0.2,0.9-0.3,1.3-0.5c-1.7,1.1-3.5,2.3-5.6,3.6
		c-8.7,5.5-36.5,13.6-50.3-0.2C4.4,150.2,23.6,124,32.4,113.3z"/>
	<path class="st2" d="M90.2,146.9l-12.1,9.3c-1.9,1.5-4,2.6-6.3,3.4c-10.5,3.7-36.3,11.1-48.6-1.3c-11.6-11.6,4.7-34.6,12.2-43.9
		c3.1-3.8,3.3-9.1,0.6-13.2C23.3,82.1-4.4,35.9,12.5,19c7-7.1,15.2-9.4,22.9-9.4c10.5,0,20.1,4.3,25.3,7.1c2.4,1.3,4.2,3.6,4.9,6.2
		l28.2,101.7c0.2,0.9,0.4,1.8,0.4,2.7v11.5C94.2,142,92.7,145,90.2,146.9z"/>
</g>
<g>
	<path class="st0" d="M159.3,102.8c-2.1,3.1-1.9,7,0.5,9.8c1.7,2,3.7,4.6,5.8,7.5l-3.9-9.4c-0.7-1.7-0.8-3.6-0.2-5.4l3.6-11.5
		C162.9,97.5,160.9,100.5,159.3,102.8z"/>
	<path class="st1" d="M159.1,113.3c-2.6-3.2-2.9-7.6-0.6-11c11.3-16.8,46.8-73,27.2-92.6c-18.8-18.9-47.2-5.3-58.6,1.4
		c-2.2,1.3-3.7,3.3-4.4,5.8L98,108.3c-0.5,1.8-0.8,3.6-1.1,5.4l-0.4,3.3c0,0.2,0,0.5,0,0.7c0,1.6,0.1,4.2,0.2,6.6c0,0,0,0,0,0
		l28.2-101.7c0.8-2.9,2.8-5.4,5.4-6.8c9.2-5,32.3-14.6,49.4,2.5c17.4,17.5-10.6,64.2-23.4,83.5c-2.5,3.7-2.3,8.6,0.5,12
		c9.6,11.9,23.9,33.5,12.2,45.3c-5.3,5.4-13.1,7.2-21,7.2c-11,0-22.4-3.4-28.6-5.7c-0.4-0.2-0.9-0.3-1.3-0.5
		c1.7,1.1,3.5,2.3,5.6,3.6c8.7,5.5,36.5,13.6,50.3-0.2C187.1,150.2,167.9,124,159.1,113.3z"/>
	<path class="st2" d="M101.3,146.9l12.1,9.3c1.9,1.5,4,2.6,6.3,3.4c10.5,3.7,36.3,11.1,48.6-1.3c11.6-11.6-4.7-34.6-12.2-43.9
		c-3.1-3.8-3.3-9.1-0.6-13.2C168.2,82.1,195.9,35.9,179,19c-7-7.1-15.2-9.4-22.9-9.4c-10.5,0-20.1,4.3-25.3,7.1
		c-2.4,1.3-4.2,3.6-4.9,6.2L97.7,124.6c-0.2,0.9-0.4,1.8-0.4,2.7v11.5C97.3,142,98.8,145,101.3,146.9z"/>
</g>
</svg>
