<?xml version="1.0" encoding="UTF-8" standalone="no"?>
<!-- Generator: Adobe Illustrator 19.0.0, SVG Export Plug-In . SVG Version: 6.00 Build 0)  -->

<svg
   xmlns:dc="http://purl.org/dc/elements/1.1/"
   xmlns:cc="http://creativecommons.org/ns#"
   xmlns:rdf="http://www.w3.org/1999/02/22-rdf-syntax-ns#"
   xmlns:svg="http://www.w3.org/2000/svg"
   xmlns="http://www.w3.org/2000/svg"
   xmlns:sodipodi="http://sodipodi.sourceforge.net/DTD/sodipodi-0.dtd"
   xmlns:inkscape="http://www.inkscape.org/namespaces/inkscape"
   version="1.1"
   id="Capa_1"
   x="0px"
   y="0px"
   viewBox="0 0 514.24 514.24"
   style="enable-background:new 0 0 514.24 514.24;"
   xml:space="preserve"
   width="512px"
   height="512px"
   sodipodi:docname="reddit.svg"
   inkscape:version="0.92.3 (2405546, 2018-03-11)"><metadata
   id="metadata1632"><rdf:RDF><cc:Work
       rdf:about=""><dc:format>image/svg+xml</dc:format><dc:type
         rdf:resource="http://purl.org/dc/dcmitype/StillImage" /></cc:Work></rdf:RDF></metadata><defs
   id="defs1630" /><sodipodi:namedview
   pagecolor="#ffffff"
   bordercolor="#666666"
   borderopacity="1"
   objecttolerance="10"
   gridtolerance="10"
   guidetolerance="10"
   inkscape:pageopacity="0"
   inkscape:pageshadow="2"
   inkscape:window-width="1533"
   inkscape:window-height="845"
   id="namedview1628"
   showgrid="false"
   inkscape:zoom="0.4609375"
   inkscape:cx="256"
   inkscape:cy="256"
   inkscape:window-x="67"
   inkscape:window-y="27"
   inkscape:window-maximized="1"
   inkscape:current-layer="g1595" />
<g
   id="g1583">
	<g
   id="g1581">
		<polygon
   points="176,289.089 176,289.121 192,289.121   "
   fill="#5543d2"
   id="polygon1579" />
	</g>
</g>
<g
   id="g1589">
	<g
   id="g1587">
		<polygon
   points="336,289.089 336,289.121 352,289.121   "
   fill="#5543d2"
   id="polygon1585" />
	</g>
</g>
<g
   id="g1595">
	<g
   id="g1593"
   style="fill:#7159c1;fill-opacity:1">
		<path
   d="M514.24,241.121c0-35.296-28.704-64-64-64c-14.112,0-27.52,4.608-38.464,12.96c-35.712-24.8-82.496-39.584-132.256-43.328    l26.848-62.976l78.112,18.24c2.496,24.16,22.72,43.104,47.52,43.104c26.464,0,48-21.536,48-48s-21.536-48-48-48    c-16.768,0-31.52,8.672-40.096,21.76l-91.296-21.344c-7.744-1.76-15.328,2.176-18.4,9.312l-37.12,87.04    c-53.728,1.856-104.928,16.992-143.584,43.36C90.976,181.441,77.92,177.121,64,177.121c-35.296,0-64,28.704-64,64    c0,23.392,12.768,44.544,32.352,55.392c-0.256,2.816-0.352,5.696-0.352,8.608c0,88.224,100.48,160,224,160    c123.488,0,224-71.776,224-160c0-2.496-0.096-4.96-0.256-7.424C500.608,287.073,514.24,265.409,514.24,241.121z M432,81.121    c8.8,0,16,7.168,16,16c0,8.832-7.2,16-16,16s-16-7.168-16-16C416,88.289,423.2,81.121,432,81.121z M144,289.121    c0-17.632,14.368-32,32-32s32,14.368,32,32c0,17.664-14.368,32-32,32S144,306.785,144,289.121z M329.888,395.265    c-22.08,15.968-48,23.968-73.888,23.968s-51.808-8-73.888-23.968c-7.168-5.184-8.768-15.2-3.584-22.336s15.2-8.736,22.336-3.584    c32.992,23.84,77.28,23.904,110.272,0c7.136-5.152,17.12-3.616,22.336,3.584C338.656,380.097,337.024,390.081,329.888,395.265z     M336,321.121c-17.664,0-32-14.336-32-32c0-17.632,14.336-32,32-32s32,14.368,32,32C368,306.785,353.664,321.121,336,321.121z"
   fill="#5543d2"
   id="path1591"
   style="fill:#7159c1;fill-opacity:1" />
	</g>
</g>
<g
   id="g1597">
</g>
<g
   id="g1599">
</g>
<g
   id="g1601">
</g>
<g
   id="g1603">
</g>
<g
   id="g1605">
</g>
<g
   id="g1607">
</g>
<g
   id="g1609">
</g>
<g
   id="g1611">
</g>
<g
   id="g1613">
</g>
<g
   id="g1615">
</g>
<g
   id="g1617">
</g>
<g
   id="g1619">
</g>
<g
   id="g1621">
</g>
<g
   id="g1623">
</g>
<g
   id="g1625">
</g>
</svg>